<?xml version="1.0" encoding="UTF-8" standalone="no"?>
<!-- Created with Inkscape (http://www.inkscape.org/) -->

<svg
   width="120"
   height="120"
   viewBox="0 0 120 120"
   version="1.1"
   id="svg5"
   inkscape:version="1.1.2 (b8e25be833, 2022-02-05)"
   sodipodi:docname="dessin3.svg"
   xmlns:inkscape="http://www.inkscape.org/namespaces/inkscape"
   xmlns:sodipodi="http://sodipodi.sourceforge.net/DTD/sodipodi-0.dtd"
   xmlns="http://www.w3.org/2000/svg"
   xmlns:svg="http://www.w3.org/2000/svg">
  <sodipodi:namedview
     id="namedview7"
     pagecolor="#ffffff"
     bordercolor="#666666"
     borderopacity="1.0"
     inkscape:pageshadow="2"
     inkscape:pageopacity="0.0"
     inkscape:pagecheckerboard="0"
     inkscape:document-units="px"
     showgrid="false"
     inkscape:zoom="0.64302523"
     inkscape:cx="369.34787"
     inkscape:cy="77.757447"
     inkscape:window-width="3440"
     inkscape:window-height="1377"
     inkscape:window-x="-8"
     inkscape:window-y="-8"
     inkscape:window-maximized="1"
     inkscape:current-layer="layer2" />
  <defs
     id="defs2">
    <rect
       x="-66.52921"
       y="-17.594502"
       width="214.7079"
       height="155.05155"
       id="rect56560" />
    <inkscape:path-effect
       effect="bspline"
       id="path-effect24812"
       is_visible="true"
       lpeversion="1"
       weight="33.333333"
       steps="2"
       helper_size="0"
       apply_no_weight="true"
       apply_with_weight="true"
       only_selected="false" />
    <rect
       x="17.319588"
       y="34.089347"
       width="79.965697"
       height="50.00654"
       id="rect11666" />
  </defs>
  <g
     inkscape:label="Calque 1"
     inkscape:groupmode="layer"
     id="layer1" />
  <g
     inkscape:groupmode="layer"
     id="layer2"
     inkscape:label="Calque 2"
     style="display:inline">
    <path
       d="m 54.421874,7.0531707 c -2.184375,0.2250002 -4.65,0.9375007 -6.65625,1.9218767 C 44.324999,10.671924 41.456249,13.240677 34.5,20.881309 29.399999,26.47819 26.296874,29.393818 23.296874,31.38132 19.715625,33.771947 16.003125,34.840698 12.375,34.531323 9.3000001,34.268823 6.2999999,33.443822 2.9062497,31.915695 0.64687499,30.903194 0,30.687569 0,30.950069 0,31.34382 5.8968751,44.337583 19.7625,74.496988 l 3.834375,8.34376 1.443749,0.768749 c 4.931251,2.643753 7.068751,3.121878 13.396875,3.009378 3.05625,-0.05625 3.384375,-0.1125 5.353125,-0.918747 4.771875,-1.959379 7.55625,-4.265631 14.803125,-12.271891 4.275,-4.715629 6.862499,-7.284383 9.449999,-9.346885 3.065623,-2.465628 6.018748,-3.928129 9.112498,-4.54688 0.890627,-0.16875 1.387505,-0.206249 2.8125,-0.206249 1.97813,0 3.27188,0.159375 5.24063,0.65625 2.503125,0.61875 4.190625,1.275002 6.85312,2.625004 l 1.556255,0.7875 1.865622,4.050004 c 1.021873,2.231252 2.971877,6.487506 4.340623,9.450009 13.518754,29.41878 16.565624,35.98129 16.818754,36.25317 0.1125,0.1125 0.28125,0.23437 0.375,0.27187 0.31875,0.0937 2.98125,-0.66562 2.98125,-0.8625 0,-0.15937 -5.11875,-11.42814 -11.04375,-24.271899 -1.8,-3.918758 -4.89375,-10.63126 -6.8625,-14.906269 C 100.125,69.096982 98.034375,64.568853 97.453123,63.303226 96.534371,61.296974 94.706246,57.359471 88.312498,43.568832 87.496873,41.815705 85.087496,36.6032 82.940623,31.990695 77.240621,19.700058 72.243751,9.0312974 72.018751,8.6750468 c -0.05625,-0.09375 -0.215627,-0.09375 -0.675,-0.018749 -1.387503,0.2156248 -2.343753,0.6937503 -2.343753,1.1812513 0,0.225 -0.02813,0.234375 -0.346874,0.196875 -0.196875,-0.02812 -1.06875,-0.3562504 -1.931251,-0.7218758 -0.871875,-0.3656254 -1.996874,-0.8156258 -2.503124,-0.9937508 -1.2,-0.4125006 -3.3375,-0.9375014 -4.59375,-1.1250011 -1.2,-0.1781256 -4.059375,-0.2531252 -5.203125,-0.1406256 z m 4.03125,0.6093751 c 4.621875,0.7968762 8.5125,2.1468776 9.956249,3.4687542 1.021876,0.928126 1.593751,1.903126 3.337501,5.72813 1.724997,3.778129 1.85625,4.162504 1.359372,4.021879 -0.121872,-0.0375 -0.759375,-0.3375 -1.434375,-0.665626 -2.831247,-1.387501 -6.853122,-2.334377 -10.331247,-2.446877 l -1.8,-0.05625 -1.378125,-3.056253 c -1.4625,-3.243753 -2.53125,-5.7375057 -2.79375,-6.5531315 -0.253125,-0.7687505 -0.20625,-0.806251 0.815625,-0.7406255 0.46875,0.028125 1.5,0.1687502 2.26875,0.2999998 z M 43.987499,12.837551 c 0.440625,0.525001 1.59375,2.821878 3.590625,7.153132 0.5625,1.209376 1.03125,2.221877 1.05,2.240627 0.0094,0.01875 0.20625,-0.08437 0.421875,-0.225 3.50625,-2.325002 7.771875,-4.162504 9.65625,-4.171878 0.496875,0 0.553125,0.01875 0.76875,0.309375 0.515625,0.675001 3.365625,6.787506 3.984375,8.550008 0.45,1.265626 0.459375,1.246876 -0.88125,1.603126 -3.2625,0.853126 -4.74375,1.500002 -7.565625,3.309379 -1.3875,0.890626 -1.59375,0.965626 -1.8,0.646875 -0.08438,-0.13125 -0.7875,-1.621876 -1.565625,-3.318753 -1.78125,-3.890629 -2.953125,-6.318756 -3.05625,-6.318756 -0.140625,0 -1.125,0.796875 -2.08125,1.687501 -0.525,0.487501 -1.828125,1.818752 -2.896875,2.953128 -2.3625,2.493753 -3.665625,3.796879 -3.825,3.796879 -0.06562,0 -0.20625,-0.140625 -0.309375,-0.309375 -0.43125,-0.703126 -3.28125,-6.909382 -3.75,-8.156258 -0.1125,-0.300001 -0.196875,-0.759376 -0.196875,-1.040626 0,-0.45 0.04687,-0.5625 0.4125,-1.059377 1.340626,-1.771876 7.359375,-7.809382 7.8,-7.809382 0.05625,0 0.16875,0.075 0.24375,0.159375 z m 23.625,15.17814 c 2.831252,0.393751 6.075,1.312501 8.60625,2.446878 0.750002,0.3375 1.556247,0.69375 1.799999,0.796875 l 0.431248,0.187501 1.51875,3.290628 c 1.556255,3.375003 2.831252,6.215631 2.953125,6.609382 0.08438,0.290625 0.09376,0.290625 -2.109375,-0.637501 -3.64687,-1.537501 -5.765625,-2.071877 -9.796872,-2.446877 -1.134375,-0.1125 -2.071876,-0.206251 -2.071876,-0.215626 -0.04687,-0.0375 -2.409374,-5.18438 -3.0375,-6.618756 -0.675,-1.509377 -1.312499,-3.093754 -1.312499,-3.243754 0,-0.02812 0.140625,-0.103125 0.309375,-0.178125 0.403125,-0.178125 1.415625,-0.178125 2.709375,0.0094 z m -41.1375,3.112503 c 0.13125,0.253126 0.871875,1.846877 1.65,3.543754 1.875001,4.078129 2.64375,5.662506 2.718751,5.662506 0.0375,0 0.243749,-0.121875 0.468749,-0.271876 0.84375,-0.5625 2.4375,-2.100002 4.828125,-4.650004 1.35,-1.443752 2.709375,-2.850003 3.009375,-3.131253 0.50625,-0.468751 0.553125,-0.487501 0.675,-0.328126 0.196875,0.2625 0.721875,1.331252 1.89375,3.834379 1.340625,2.859378 2.45625,5.09063 2.690625,5.381256 l 0.1875,0.225 0.45,-0.412501 c 0.24375,-0.225 1.321875,-1.340626 2.38125,-2.465627 2.071875,-2.212502 4.021875,-4.059379 5.19375,-4.94063 0.403125,-0.309375 0.76875,-0.553126 0.80625,-0.553126 0.08438,0 0.459375,0.768751 1.884375,3.843754 1.275,2.765628 2.409375,5.10938 2.71875,5.606256 l 0.1875,0.309375 0.309375,-0.159375 c 0.159375,-0.08438 0.825,-0.496875 1.471875,-0.918751 2.615625,-1.687502 4.70625,-2.550002 7.63125,-3.150003 0.50625,-0.103125 0.99375,-0.1875 1.078125,-0.1875 0.178124,0 0.656249,0.937501 2.493752,4.92188 1.256245,2.728128 1.828125,4.171879 1.893748,4.781255 0.06562,0.665624 -0.149998,0.843751 -1.18125,0.928126 -1.650001,0.131249 -4.528125,1.359376 -7.321875,3.103128 -1.153125,0.721876 -1.621875,0.984376 -1.7625,0.984376 -0.09375,0 -1.059375,-2.062502 -3.271875,-6.975007 -0.740625,-1.650002 -1.359375,-3.018753 -1.3875,-3.037503 -0.08438,-0.09375 -1.921875,1.481251 -3.15,2.700002 -0.69375,0.693751 -1.715625,1.809377 -2.259375,2.484378 -1.0125,1.256251 -3.159375,3.421878 -3.384375,3.421878 -0.178125,0 -0.946875,-1.415626 -2.053125,-3.778129 -1.340625,-2.887502 -2.634375,-5.50313 -2.75625,-5.606255 -0.1875,-0.159375 -1.115625,0.7125 -3.675,3.459378 -3.0375,3.253129 -4.996875,5.109381 -5.25,4.950004 -0.103124,-0.06562 -1.565624,-3.112502 -3.234375,-6.759381 -1.29375,-2.831252 -1.340624,-2.906253 -1.621874,-2.934378 -0.215626,-0.01875 -0.609376,0.168751 -1.771875,0.871876 -0.825001,0.506251 -1.9125,1.115626 -2.41875,1.378127 -1.903125,0.946876 -4.2375,1.781252 -5.3625,1.912502 -0.76875,0.08438 -0.928125,0.178125 -0.853125,0.515625 0.075,0.412501 0.871875,2.334378 2.00625,4.86563 1.153125,2.578128 1.893749,4.47188 1.893749,4.818754 0,0.375001 -0.299999,0.459377 -1.453124,0.450001 C 20.221875,55.793844 14.86875,54.396968 12.20625,53.046967 11.1,52.484466 10.846875,52.240716 10.1625,51.096964 8.6812501,48.603212 6.3374996,43.737582 6.0562496,42.546956 c -0.065625,-0.2625 -0.065625,-0.2625 0.2906255,-0.196875 0.196875,0.02812 1.2375,0.4125 2.3249995,0.843751 3.5812504,1.434376 6.0093754,2.015627 9.3468754,2.250002 1.031249,0.075 1.528125,0.01875 1.6125,-0.196875 0.103125,-0.271876 -0.853125,-2.531253 -3.178125,-7.518758 -0.6,-1.303126 -1.087501,-2.390627 -1.06875,-2.409377 0.01875,-0.01875 0.890625,-0.243751 1.93125,-0.506251 2.831249,-0.712501 3.65625,-1.021876 5.278124,-2.025002 1.8,-1.106251 3.496876,-2.109377 3.571875,-2.109377 0.04687,0 0.1875,0.20625 0.309375,0.45 z m 52.087497,17.784394 c 1.96875,0.309375 4.378127,1.003125 6.6375,1.912501 1.396877,0.562501 2.268752,1.040627 2.59688,1.434377 0.515622,0.609375 4.1625,8.334382 4.33125,9.168759 l 0.04687,0.281251 -0.356245,-0.131252 c -0.206255,-0.075 -0.975003,-0.384375 -1.715625,-0.703125 -1.565628,-0.665626 -2.971878,-1.134375 -4.546878,-1.509377 -1.771875,-0.431249 -2.943752,-0.581249 -5.146875,-0.646875 l -2.043752,-0.05625 -2.19375,-4.781254 c -1.209375,-2.625002 -2.203122,-4.828129 -2.203122,-4.884379 0,-0.243751 0.525002,-0.318752 2.062497,-0.281251 0.85313,0.01875 1.987502,0.1125 2.53125,0.196876 z m -42.524997,2.971877 c 0.318751,0.590625 2.23125,4.73438 3.525,7.668758 0.375,0.853125 0.69375,1.565627 0.7125,1.584376 0.06562,0.075 1.70625,-1.3875 2.859375,-2.550002 0.684375,-0.675 2.315625,-2.390627 3.61875,-3.796878 1.3125,-1.396877 2.4,-2.550003 2.428125,-2.550003 0.06562,0 0.8625,1.650002 2.41875,5.006255 1.734375,3.721878 2.325,4.931254 2.409375,4.931254 0.02812,0 1.05,-1.068751 2.26875,-2.371876 2.925,-3.14063 4.8375,-4.968756 6.140625,-5.868757 0.609375,-0.421876 0.50625,-0.590626 2.840624,4.537505 1.171876,2.578127 2.1375,4.734379 2.1375,4.781255 0.0094,0.05625 -0.853124,0.890625 -1.903124,1.856252 -1.05,0.965625 -2.540625,2.418753 -3.309375,3.225002 -2.7375,2.915628 -3.478125,3.628129 -3.61875,3.515629 -0.20625,-0.16875 -1.603125,-2.962503 -3.1125,-6.206255 -0.75,-1.621878 -1.40625,-2.990629 -1.44375,-3.028129 -0.04687,-0.04687 -1.284375,1.228127 -2.75625,2.821877 -3.95625,4.284381 -5.7,5.859382 -6.140625,5.578132 -0.215625,-0.131251 -0.890625,-1.434376 -2.60625,-5.043756 -1.603125,-3.365627 -2.165625,-4.45313 -2.296875,-4.45313 -0.04687,0 -0.8625,0.478126 -1.8,1.068751 -2.6625,1.659377 -3.665625,2.118753 -6.187499,2.831254 -1.753126,0.496875 -2.503125,0.76875 -2.503125,0.890625 0,0.150001 0.684374,1.715627 2.296874,5.240632 1.725001,3.768753 2.128125,4.696878 2.071875,4.753129 -0.1125,0.1125 -1.490625,0.13125 -2.634375,0.0375 -3.2625,-0.281251 -5.34375,-0.871876 -9.749999,-2.775003 C 20.775,73.175111 19.96875,72.800111 19.9125,72.734486 c -0.103126,-0.09375 -0.88125,-1.753127 -3.065625,-6.525006 -1.153125,-2.540628 -1.575,-3.496879 -1.528125,-3.534379 0.01875,-0.02813 0.749999,0.253125 1.621874,0.609376 4.021875,1.678126 5.615626,2.175001 8.04375,2.512502 1.153125,0.159376 4.096875,0.234375 4.228126,0.103126 0.09375,-0.09375 -0.09375,-0.534376 -2.071876,-4.893755 -0.946875,-2.062503 -1.837499,-4.05938 -1.996874,-4.425006 L 24.853125,55.89697 25.10625,55.765719 c 0.140625,-0.075 0.656249,-0.215625 1.143749,-0.31875 2.343751,-0.50625 4.85625,-1.593752 7.21875,-3.112504 1.143751,-0.731251 1.715625,-1.021875 2.034375,-1.03125 0.159375,0 0.28125,0.140625 0.534375,0.58125 z m 9.45,20.484396 c 0.178125,0.403125 1.2,2.615627 2.26875,4.912503 1.059375,2.296881 1.93125,4.228136 1.93125,4.275006 0,0.08438 -1.846875,1.246881 -3.46875,2.184379 -1.771875,1.031253 -4.396875,2.090625 -5.784375,2.343751 -1.35,0.243752 -1.85625,-0.253126 -3.140625,-3.037504 -0.7875,-1.706246 -2.259374,-5.109375 -2.568749,-5.925006 -0.121876,-0.328125 -0.196875,-0.65625 -0.16875,-0.73125 0.06562,-0.168751 0.524999,-0.337501 0.937499,-0.337501 1.471875,0 5.184375,-1.584376 7.959375,-3.403128 0.825,-0.543751 1.546875,-0.993751 1.603125,-0.993751 0.05625,-0.0094 0.24375,0.318751 0.43125,0.712501 z"
       id="path75683"
       style="fill:#000000;stroke:none;stroke-width:0.00937498" />
  </g>
</svg>
