<?xml version="1.0" encoding="UTF-8" standalone="no"?>
<!-- Created with Inkscape (http://www.inkscape.org/) -->

<svg
   width="120"
   height="120"
   viewBox="0 0 120 120"
   version="1.1"
   id="svg5"
   inkscape:version="1.1.2 (b8e25be833, 2022-02-05)"
   sodipodi:docname="dessin3.svg"
   xmlns:inkscape="http://www.inkscape.org/namespaces/inkscape"
   xmlns:sodipodi="http://sodipodi.sourceforge.net/DTD/sodipodi-0.dtd"
   xmlns="http://www.w3.org/2000/svg"
   xmlns:svg="http://www.w3.org/2000/svg">
  <sodipodi:namedview
     id="namedview7"
     pagecolor="#ffffff"
     bordercolor="#666666"
     borderopacity="1.0"
     inkscape:pageshadow="2"
     inkscape:pageopacity="0.0"
     inkscape:pagecheckerboard="0"
     inkscape:document-units="px"
     showgrid="false"
     inkscape:zoom="0.64302523"
     inkscape:cx="369.34787"
     inkscape:cy="-295.4783"
     inkscape:window-width="3440"
     inkscape:window-height="1377"
     inkscape:window-x="-8"
     inkscape:window-y="-8"
     inkscape:window-maximized="1"
     inkscape:current-layer="layer2" />
  <defs
     id="defs2">
    <rect
       x="-66.52921"
       y="-17.594502"
       width="214.7079"
       height="155.05155"
       id="rect56560" />
    <inkscape:path-effect
       effect="bspline"
       id="path-effect24812"
       is_visible="true"
       lpeversion="1"
       weight="33.333333"
       steps="2"
       helper_size="0"
       apply_no_weight="true"
       apply_with_weight="true"
       only_selected="false" />
    <rect
       x="17.319588"
       y="34.089347"
       width="79.965697"
       height="50.00654"
       id="rect11666" />
  </defs>
  <g
     inkscape:label="Calque 1"
     inkscape:groupmode="layer"
     id="layer1" />
  <g
     inkscape:groupmode="layer"
     id="layer2"
     inkscape:label="Calque 2"
     style="display:inline">
    <g
       id="g75772"
       transform="matrix(2.0397661,0,0,2.0397661,-1.2251152e-6,0.90878117)">
      <g
         id="g75714">
	<g
   id="g75712">
		<g
   id="g75710">
			<path
   d="m 57.284,37.476 c -7.606,3.006 -14.642,4.53 -20.908,4.53 -4.969,0 -8.302,-0.936 -10.292,-1.494 -0.313,-0.089 -0.584,-0.166 -0.821,-0.225 -4.978,-1.248 -9.311,-4.405 -11.891,-8.663 -0.148,-0.248 -0.282,-0.479 -0.408,-0.709 -1.495,-2.729 -1.438,-5.967 0.156,-8.658 1.585,-2.675 4.489,-4.336 7.578,-4.336 0.58,0 1.162,0.06 1.729,0.176 1.608,0.33 3.104,0.498 4.447,0.498 1.692,0 2.783,-0.252 3.66,-0.454 l 0.28,-0.064 c 0.28,-0.063 0.55,-0.167 0.806,-0.309 l 9.83,-5.487 C 41.35,12.198 41.262,12.122 41.153,12.034 36.654,8.413 30.953,6.418 25.1,6.418 c -4.822,0 -9.563,1.326 -13.706,3.836 -5.466,3.31 -8.898,7.566 -10.185,12.585 -0.197,0.591 -4.71,14.59 5.073,25.407 0.472,0.578 2.991,2.82 14.154,3.805 2.714,0.239 5.5,0.361 8.282,0.361 0.001,0 0.001,0 0.001,0 5.396,0 10.963,-0.456 16.549,-1.354 4.663,-0.75 8.362,-1.596 10.995,-2.515 0.288,-0.101 0.515,-0.327 0.615,-0.615 0.09,-0.257 1.967,-5.782 0.66,-10.572 -0.083,0.041 -0.165,0.085 -0.254,0.12 z M 19.568,47.581 c -0.33,0.028 -0.658,0.041 -0.984,0.041 -6.044,0 -11.196,-4.65 -11.706,-10.779 -0.046,-0.551 0.362,-1.034 0.913,-1.079 0.562,-0.065 1.034,0.362 1.079,0.913 0.446,5.359 5.166,9.358 10.532,8.912 0.564,-0.058 1.034,0.363 1.079,0.913 0.045,0.551 -0.363,1.034 -0.913,1.079 z"
   id="path75704" />

			<path
   d="M 58.225,30.065 48.559,14.762 c -0.707,-1.12 -1.921,-1.789 -3.247,-1.789 -0.626,0 -1.25,0.156 -1.821,0.461 l -10.896,6.082 c -0.421,0.234 -0.87,0.407 -1.334,0.512 l -0.274,0.063 c -0.887,0.205 -2.094,0.479 -3.877,0.501 0.119,8.201 8.734,17.391 16.988,18.671 3.921,-0.709 8.08,-1.918 12.453,-3.646 0.987,-0.39 1.747,-1.207 2.085,-2.243 0.362,-1.114 0.213,-2.319 -0.411,-3.309 z"
   id="path75706" />

			<path
   d="m 14.841,23.277 c -1.229,2.076 -1.276,4.572 -0.122,6.679 0.113,0.207 0.233,0.415 0.364,0.633 2.309,3.811 6.196,6.639 10.665,7.759 0.254,0.063 0.545,0.146 0.876,0.239 1.893,0.531 5.059,1.42 9.752,1.42 0.945,0 1.915,-0.05 2.898,-0.122 C 31.706,36.536 25.156,28.242 25.106,20.508 24.125,20.423 23.1,20.277 22.027,20.057 c -2.817,-0.578 -5.715,0.739 -7.186,3.22 z m 10.243,4.142 c 0,2.206 -1.794,4 -4,4 -2.206,0 -4,-1.794 -4,-4 0,-2.206 1.794,-4 4,-4 2.206,0 4,1.794 4,4 z"
   id="path75708" />

		</g>

	</g>

</g>
      <g
         id="g75716">
</g>
      <g
         id="g75718">
</g>
      <g
         id="g75720">
</g>
      <g
         id="g75722">
</g>
      <g
         id="g75724">
</g>
      <g
         id="g75726">
</g>
      <g
         id="g75728">
</g>
      <g
         id="g75730">
</g>
      <g
         id="g75732">
</g>
      <g
         id="g75734">
</g>
      <g
         id="g75736">
</g>
      <g
         id="g75738">
</g>
      <g
         id="g75740">
</g>
      <g
         id="g75742">
</g>
      <g
         id="g75744">
</g>
    </g>
  </g>
</svg>
