<?xml version="1.0" encoding="UTF-8" standalone="no"?>
<!-- Created with Inkscape (http://www.inkscape.org/) -->

<svg
   width="120"
   height="120"
   viewBox="0 0 120 120"
   version="1.1"
   id="svg5"
   inkscape:version="1.1.2 (b8e25be833, 2022-02-05)"
   sodipodi:docname="dessin3.svg"
   xmlns:inkscape="http://www.inkscape.org/namespaces/inkscape"
   xmlns:sodipodi="http://sodipodi.sourceforge.net/DTD/sodipodi-0.dtd"
   xmlns="http://www.w3.org/2000/svg"
   xmlns:svg="http://www.w3.org/2000/svg">
  <sodipodi:namedview
     id="namedview7"
     pagecolor="#ffffff"
     bordercolor="#666666"
     borderopacity="1.0"
     inkscape:pageshadow="2"
     inkscape:pageopacity="0.0"
     inkscape:pagecheckerboard="0"
     inkscape:document-units="px"
     showgrid="false"
     inkscape:zoom="3.6375"
     inkscape:cx="-99.106529"
     inkscape:cy="22.268041"
     inkscape:window-width="3440"
     inkscape:window-height="1377"
     inkscape:window-x="-8"
     inkscape:window-y="-8"
     inkscape:window-maximized="1"
     inkscape:current-layer="layer2" />
  <defs
     id="defs2">
    <rect
       x="-66.52921"
       y="-17.594502"
       width="214.7079"
       height="155.05155"
       id="rect56560" />
    <inkscape:path-effect
       effect="bspline"
       id="path-effect24812"
       is_visible="true"
       lpeversion="1"
       weight="33.333333"
       steps="2"
       helper_size="0"
       apply_no_weight="true"
       apply_with_weight="true"
       only_selected="false" />
    <rect
       x="17.319588"
       y="34.089347"
       width="79.965697"
       height="50.00654"
       id="rect11666" />
  </defs>
  <g
     inkscape:label="Calque 1"
     inkscape:groupmode="layer"
     id="layer1" />
  <g
     inkscape:groupmode="layer"
     id="layer2"
     inkscape:label="Calque 2"
     style="display:inline">
    <path
       fill="#000000"
       fill-opacity="1"
       stroke-width="0.435"
       stroke-linejoin="round"
       d="M 4.0046299,72.344059 C 2.9116931,72.497614 1.9011887,71.736149 1.7476338,70.643213 L 0.07875728,58.769257 C -0.35950495,55.650095 1.0653367,52.698626 3.5059027,51.040192 l 4.831107,-19.666312 1.9790313,-0.278182 3.957845,-0.556146 19.789877,-2.781385 3.957845,-0.556146 1.979032,-0.278183 10.064805,17.572879 c 2.802922,0.921547 4.986402,3.365806 5.424664,6.485185 l 1.668877,11.873738 c 0.153555,1.092935 -0.607913,2.103439 -1.700849,2.25721 l -1.979032,0.277965 0.557018,3.958058 c 0.306458,2.18587 -1.216477,4.206876 -3.402351,4.514204 -2.186091,0.30711 -4.2071,-1.215822 -4.514209,-3.401695 l -0.556365,-3.958056 -31.663629,4.450042 0.556147,3.958056 c 0.307327,2.185872 -1.215607,4.206877 -3.401698,4.514204 -2.1858736,0.30711 -4.2068824,-1.215823 -4.5142097,-3.401693 L 5.9836612,72.065877 Z M 9.6526664,49.351744 43.691177,44.56784 37.272756,33.361391 12.733553,36.810283 Z m 0.1898778,3.504787 c -2.1858741,0.30711 -4.1340204,2.892527 -3.8269106,5.078399 0.3073274,2.18587 2.8927482,4.134231 5.0786214,3.826905 2.185875,-0.30711 4.134021,-2.892528 3.826911,-5.078398 -0.307327,-2.185871 -2.892531,-4.134015 -5.0786218,-3.826906 z M 44.474829,47.989326 c -2.186091,0.30711 -4.134238,2.892527 -3.82691,5.078398 0.30711,2.185871 2.89253,4.134232 5.078404,3.826905 2.185874,-0.30711 4.134238,-2.892527 3.82691,-5.078399 -0.307109,-2.18587 -2.892531,-4.134231 -5.078404,-3.826904 z m 20.066972,16.820331 c -1.092937,-0.153555 -1.854403,-1.164058 -1.700848,-2.256993 l 1.668875,-11.873955 c 0.438263,-3.119162 2.621744,-5.56364 5.424883,-6.484968 l 10.064588,-17.572879 1.979031,0.278181 3.957846,0.556147 19.789884,2.781385 3.95806,0.556146 1.97882,0.278182 4.8311,19.666313 c 2.44057,1.658435 3.86562,4.609903 3.42714,7.729065 l -1.66865,11.873955 c -0.15378,1.092935 -1.16428,1.854401 -2.25722,1.700846 l -1.97903,-0.278181 -0.55615,3.95784 c -0.30733,2.186088 -2.32833,3.70902 -4.5142,3.40191 -2.18588,-0.307326 -3.70903,-2.328333 -3.40171,-4.514421 l 0.55615,-3.95784 -31.66363,-4.450042 -0.556147,3.958058 c -0.307327,2.185871 -2.328336,3.708803 -4.51421,3.401693 -2.186091,-0.307326 -3.709025,-2.328333 -3.401698,-4.514421 l 0.556147,-3.95784 z M 76.308762,44.264863 110.34728,49.048549 107.26639,36.507087 82.727182,33.058415 Z m -0.783652,3.421486 c -2.185874,-0.307327 -4.771077,1.640817 -5.078405,3.826906 -0.30711,2.18587 1.641036,4.77107 3.82691,5.078396 2.185874,0.30711 4.771295,-1.641034 5.078405,-3.826904 0.307327,-2.185871 -1.640819,-4.771289 -3.82691,-5.078398 z m 34.63229,4.867205 c -2.18587,-0.307326 -4.77129,1.640817 -5.07862,3.826907 -0.30711,2.18587 1.64104,4.771069 3.82691,5.078397 2.18609,0.307109 4.77129,-1.641035 5.07862,-3.826905 0.30711,-2.185872 -1.64104,-4.771289 -3.82691,-5.078399 z M 39.337482,3.443671 46.225051,0 53.112401,37.88125 Z M 55.695212,0 H 62.58278 L 56.556294,37.881032 Z M 73.774888,3.443671 80.662456,6.8873423 63.443644,41.324921 Z"
       id="path43503" />
    <text
       xml:space="preserve"
       id="text56558"
       style="font-style:normal;font-weight:normal;font-size:40px;line-height:1.25;font-family:sans-serif;white-space:pre;shape-inside:url(#rect56560);fill:#000000;fill-opacity:1;stroke:none"
       transform="translate(100.61856,95.395189)"><tspan
         x="-66.529297"
         y="18.899463"
         id="tspan69805">inc.</tspan></text>
  </g>
</svg>
