<?xml version="1.0" encoding="UTF-8" standalone="no"?>
<!-- Created with Inkscape (http://www.inkscape.org/) -->

<svg
   width="120"
   height="120"
   viewBox="0 0 120 120"
   version="1.1"
   id="svg5"
   inkscape:version="1.1.2 (b8e25be833, 2022-02-05)"
   sodipodi:docname="dessin3.svg"
   xmlns:inkscape="http://www.inkscape.org/namespaces/inkscape"
   xmlns:sodipodi="http://sodipodi.sourceforge.net/DTD/sodipodi-0.dtd"
   xmlns="http://www.w3.org/2000/svg"
   xmlns:svg="http://www.w3.org/2000/svg">
  <sodipodi:namedview
     id="namedview7"
     pagecolor="#ffffff"
     bordercolor="#666666"
     borderopacity="1.0"
     inkscape:pageshadow="2"
     inkscape:pageopacity="0.0"
     inkscape:pagecheckerboard="0"
     inkscape:document-units="px"
     showgrid="false"
     inkscape:zoom="0.64302523"
     inkscape:cx="-403.56115"
     inkscape:cy="220.83115"
     inkscape:window-width="3440"
     inkscape:window-height="1377"
     inkscape:window-x="-8"
     inkscape:window-y="-8"
     inkscape:window-maximized="1"
     inkscape:current-layer="layer2" />
  <defs
     id="defs2">
    <rect
       x="-66.52921"
       y="-17.594502"
       width="214.7079"
       height="155.05155"
       id="rect56560" />
    <inkscape:path-effect
       effect="bspline"
       id="path-effect24812"
       is_visible="true"
       lpeversion="1"
       weight="33.333333"
       steps="2"
       helper_size="0"
       apply_no_weight="true"
       apply_with_weight="true"
       only_selected="false" />
    <rect
       x="17.319588"
       y="34.089347"
       width="79.965697"
       height="50.00654"
       id="rect11666" />
  </defs>
  <g
     inkscape:label="Calque 1"
     inkscape:groupmode="layer"
     id="layer1" />
  <g
     inkscape:groupmode="layer"
     id="layer2"
     inkscape:label="Calque 2"
     style="display:inline">
    <g
       id="g75572"
       transform="matrix(0.21866248,0,0,0.21866271,0,-0.71906494)">
      <g
         id="g75517">
	<g
   id="g75515">
		<path
   d="M 122.983,59.272 C 111.422,52.664 96.897,49.021 82.075,49.021 65.637,49.021 50.127,53.4 38.422,61.366 13.196,78.512 0,120.855 0,153.817 v 181.152 c 0,35.82 18.044,82.936 41.96,109.576 l 6.579,7.344 c 24.499,27.293 70.638,47.881 107.32,47.881 h 315.342 c 43.51,0 77.59,-26.709 77.59,-60.809 0,-32.531 -29.154,-68.449 -56.59,-85.729 l -29.932,-18.838 c -19.439,-12.25 -39.809,-41.387 -43.584,-62.366 -6.246,-34.741 -28.688,-70.762 -52.213,-83.777 -11.848,-6.56 -26.029,-10.175 -39.941,-10.175 -15.416,0 -29.377,4.456 -39.293,12.565 -14.879,12.135 -31.9,36.06 -39.579,55.634 -4.657,11.867 -20.817,38.585 -36.557,57.968 -6.923,8.502 -17.681,11.705 -23.371,6.445 -10.098,-9.324 -21.391,-38.221 -21.391,-62.95 v -96.151 c 0,-32.75 -15.195,-76.231 -43.357,-92.315 z M 151.46,279 l -9.266,2.391 c -2.974,-11.542 -4.552,-23.18 -4.552,-33.642 v -15.673 h 9.562 v 15.673 c 0.011,9.677 1.474,20.483 4.256,31.251 z m -5.661,-144.585 c 0.938,5.814 1.406,11.59 1.406,17.174 v 32.005 h -9.562 v -32.005 c 0,-5.078 -0.43,-10.337 -1.291,-15.654 z M 82.084,68.146 c 11.552,0 22.711,2.744 31.422,7.726 4.619,2.64 9.065,6.637 13.187,11.887 l -7.516,5.909 C 115.811,89.394 112.311,86.2 108.763,84.173 101.467,80.004 92,77.709 82.083,77.709 L 80,77.738 79.704,68.185 Z m -46.77,24.585 8.157,4.982 c -7.028,11.504 -12.288,27.913 -14.085,43.873 l -9.505,-1.062 c 1.97,-17.546 7.592,-34.96 15.433,-47.793 z m -16.189,96.792 h 9.562 v 48.482 h -9.562 z m 0,96.963 h 9.562 v 48.482 H 19.125 Z M 47.42,420.467 C 38.881,407.893 31.336,391.924 26.163,375.504 l 9.123,-2.869 c 4.896,15.559 12.011,30.639 20.043,42.459 z m 80.632,56.15 c -15.807,-4.254 -31.929,-11.58 -45.403,-20.615 l 5.336,-7.938 c 12.622,8.473 27.731,15.338 42.553,19.326 z m 97.872,4.037 h -48.482 v -9.562 h 48.482 z m 96.963,0 h -48.481 v -9.562 h 48.481 z m 96.965,0 H 371.37 v -9.562 h 48.482 z m 51.359,0 c -0.01,0 -0.02,0 -0.02,0 h -2.85 v -9.562 h 2.85 c 0,0 0.01,0 0.02,0 15.512,0 29.787,-4.754 39.188,-13.045 l 6.32,7.172 c -11.121,9.802 -27.711,15.435 -45.508,15.435 z m 20.646,-104.183 c 13.416,10.758 24.957,24.977 31.67,39.023 l -8.625,4.121 C 508.793,406.83 498.216,393.826 485.89,383.937 Z m -73.459,-59.815 c 9.59,13.934 21.113,25.705 32.445,33.145 l -5.25,7.994 c -12.346,-8.109 -24.805,-20.789 -35.076,-35.707 z m -38.041,-88.452 c 9.324,13.846 16.361,30.705 19.316,46.244 l -9.391,1.789 c -2.725,-14.325 -9.227,-29.883 -17.852,-42.688 z m -81.031,-22.74 c 9.008,-7.344 24.604,-10.041 39.941,-6.971 l -1.873,9.381 c -12.441,-2.486 -25.312,-0.478 -32.025,5.011 -2.295,1.865 -4.762,4.236 -7.354,7.067 l -7.057,-6.464 c 2.907,-3.176 5.718,-5.873 8.368,-8.024 z m -7.162,58.283 c 4.656,-11.867 16.715,-29.051 25.291,-36.05 0.613,-0.469 3.586,-1.798 9.076,-1.798 5.861,0 11.98,1.521 16.781,4.188 8.721,4.829 24.078,26.861 28.314,50.422 6.168,34.281 34.178,74.846 65.16,94.363 l 29.92,18.838 c 20.598,12.967 34.254,35.84 34.254,45.27 0,3.338 -10.242,12.994 -29.777,12.994 H 155.85 c -22.912,0 -56.428,-14.955 -71.728,-31.996 l -6.589,-7.344 C 61.698,394.982 47.804,358.702 47.804,334.978 V 153.826 c 0,-25.446 11.322,-48.721 17.49,-52.909 2.897,-1.97 8.826,-4.074 16.782,-4.074 6.531,0 12.794,1.435 17.184,3.949 7.669,4.38 19.259,26.88 19.259,50.806 v 96.161 c 0,36.567 15.807,78.728 36.768,98.073 10.681,9.859 24.681,15.291 39.445,15.291 20.177,0 39.665,-9.744 53.464,-26.719 17.622,-21.677 36.929,-52.709 43.968,-70.657 z m -27.704,-8.061 8.778,3.796 c -4.781,11.025 -14.066,26.977 -24.862,42.658 l -7.879,-5.422 c 10.308,-14.964 19.498,-30.685 23.963,-41.032 z m -93.521,65.025 c 1.243,1.492 2.515,2.84 3.806,4.035 8.893,8.195 22.166,9.906 34.396,4.562 l 3.825,8.768 c -5.948,2.592 -12.087,3.912 -18.236,3.912 -10.079,0 -19.23,-3.529 -26.469,-10.213 -1.587,-1.463 -3.146,-3.117 -4.667,-4.936 z"
   id="path75513" />

	</g>

</g>
      <g
         id="g75519">
</g>
      <g
         id="g75521">
</g>
      <g
         id="g75523">
</g>
      <g
         id="g75525">
</g>
      <g
         id="g75527">
</g>
      <g
         id="g75529">
</g>
      <g
         id="g75531">
</g>
      <g
         id="g75533">
</g>
      <g
         id="g75535">
</g>
      <g
         id="g75537">
</g>
      <g
         id="g75539">
</g>
      <g
         id="g75541">
</g>
      <g
         id="g75543">
</g>
      <g
         id="g75545">
</g>
      <g
         id="g75547">
</g>
    </g>
  </g>
</svg>
